<svg width="64" height="64" viewBox="0 0 64 64" fill="none" xmlns="http://www.w3.org/2000/svg">
<g clip-path="url(#clip0_42_1211)">
<path d="M8 26.6667C8 29.118 8.48283 31.5453 9.42092 33.8101C10.359 36.0748 11.734 38.1326 13.4673 39.866C15.2007 41.5994 17.2585 42.9743 19.5232 43.9124C21.788 44.8505 24.2153 45.3333 26.6667 45.3333C29.118 45.3333 31.5453 44.8505 33.8101 43.9124C36.0748 42.9743 38.1326 41.5994 39.866 39.866C41.5994 38.1326 42.9743 36.0748 43.9124 33.8101C44.8505 31.5453 45.3333 29.118 45.3333 26.6667C45.3333 24.2153 44.8505 21.788 43.9124 19.5232C42.9743 17.2585 41.5994 15.2007 39.866 13.4673C38.1326 11.734 36.0748 10.359 33.8101 9.42091C31.5453 8.48283 29.118 8 26.6667 8C24.2153 8 21.788 8.48283 19.5232 9.42091C17.2585 10.359 15.2007 11.734 13.4673 13.4673C11.734 15.2007 10.359 17.2585 9.42092 19.5232C8.48283 21.788 8 24.2153 8 26.6667Z" stroke="black" stroke-width="2" stroke-linecap="round" stroke-linejoin="round"/>
<path d="M56 56L40 40" stroke="black" stroke-width="2" stroke-linecap="round" stroke-linejoin="round"/>
</g>
<defs>
<clipPath id="clip0_42_1211">
<rect width="64" height="64" fill="white"/>
</clipPath>
</defs>
</svg>
