<svg width="64" height="64" viewBox="0 0 64 64" fill="none" xmlns="http://www.w3.org/2000/svg">
<path d="M8 56L12.4 45.8667C9.03377 41.0881 7.52711 35.2454 8.16279 29.4349C8.79846 23.6245 11.5328 18.2457 15.8526 14.308C20.1723 10.3704 25.7807 8.14455 31.625 8.04824C37.4694 7.95194 43.148 9.99179 47.5952 13.785C52.0423 17.5782 54.9524 22.8639 55.7791 28.6503C56.6059 34.4367 55.2926 40.3259 52.0856 45.2127C48.8786 50.0995 43.9985 53.648 38.361 55.1923C32.7236 56.7365 26.7163 56.1703 21.4667 53.6L8 56Z" stroke="black" stroke-width="2" stroke-linecap="round" stroke-linejoin="round"/>
<path d="M24 26.6667C24 27.0203 24.1405 27.3594 24.3905 27.6095C24.6406 27.8595 24.9797 28 25.3333 28C25.687 28 26.0261 27.8595 26.2761 27.6095C26.5262 27.3594 26.6667 27.0203 26.6667 26.6667V24C26.6667 23.6464 26.5262 23.3073 26.2761 23.0572C26.0261 22.8072 25.687 22.6667 25.3333 22.6667C24.9797 22.6667 24.6406 22.8072 24.3905 23.0572C24.1405 23.3073 24 23.6464 24 24V26.6667ZM24 26.6667C24 30.2029 25.4048 33.5943 27.9052 36.0948C30.4057 38.5953 33.7971 40 37.3333 40M37.3333 40H40C40.3536 40 40.6928 39.8595 40.9428 39.6095C41.1929 39.3594 41.3333 39.0203 41.3333 38.6667C41.3333 38.3131 41.1929 37.9739 40.9428 37.7239C40.6928 37.4738 40.3536 37.3334 40 37.3334H37.3333C36.9797 37.3334 36.6406 37.4738 36.3905 37.7239C36.1405 37.9739 36 38.3131 36 38.6667C36 39.0203 36.1405 39.3594 36.3905 39.6095C36.6406 39.8595 36.9797 40 37.3333 40Z" stroke="black" stroke-width="2" stroke-linecap="round" stroke-linejoin="round"/>
</svg>
