<?xml version="1.0" standalone="no"?>
<!DOCTYPE svg PUBLIC "-//W3C//DTD SVG 20010904//EN"
 "http://www.w3.org/TR/2001/REC-SVG-20010904/DTD/svg10.dtd">
<svg version="1.0" xmlns="http://www.w3.org/2000/svg"
 width="480.000000pt" height="519.000000pt" viewBox="0 0 480.000000 519.000000"
 preserveAspectRatio="xMidYMid meet">

<g transform="translate(0.000000,519.000000) scale(0.100000,-0.100000)"
fill="#000000" stroke="none">
<path d="M2785 4895 c-14 -13 -25 -30 -25 -38 0 -8 -12 -19 -27 -26 -52 -24
-699 -275 -813 -316 -507 -181 -500 -178 -500 -205 0 -46 28 -40 330 72 231
85 404 150 425 159 11 5 52 20 90 34 39 14 79 30 90 35 27 13 355 140 361 140
3 0 -12 -25 -33 -55 l-38 -55 -155 -60 c-373 -147 -698 -263 -950 -339 -251
-76 -245 -74 -248 -105 -4 -28 -3 -29 35 -24 109 15 638 193 1110 374 78 30
144 54 146 54 3 0 -1 -17 -10 -38 -14 -38 -18 -40 -201 -115 -411 -168 -756
-287 -1135 -392 -50 -14 -57 -19 -57 -41 0 -13 6 -27 14 -30 12 -5 93 12 171
36 447 138 670 217 1042 369 l123 49 -6 -41 c-4 -23 -12 -48 -18 -54 -40 -44
-855 -349 -1086 -408 -285 -72 -315 -81 -318 -102 -6 -43 17 -44 173 -4 341
87 692 208 1104 380 68 29 125 51 126 49 2 -2 6 -19 10 -39 l7 -35 -150 -67
c-359 -159 -820 -317 -1132 -387 -181 -41 -185 -43 -185 -70 0 -23 3 -25 45
-23 188 6 952 256 1352 442 73 34 88 37 88 19 0 -7 3 -22 6 -34 5 -18 -11 -28
-133 -86 -76 -36 -183 -85 -238 -108 -55 -23 -114 -48 -132 -56 -54 -24 -322
-120 -418 -149 -49 -15 -108 -33 -130 -40 -48 -15 -266 -68 -384 -93 -90 -19
-115 -38 -92 -66 16 -19 21 -18 213 25 390 87 816 237 1207 426 73 35 135 63
136 61 1 -2 10 -18 19 -36 17 -32 17 -34 -1 -47 -31 -24 -333 -172 -438 -215
-55 -23 -109 -45 -120 -50 -206 -92 -645 -227 -930 -286 -108 -22 -105 -21
-105 -42 0 -37 21 -43 101 -27 122 25 376 92 499 130 63 20 137 43 163 51 184
56 653 260 809 351 31 18 61 33 66 33 5 0 21 -18 36 -40 l26 -39 -63 -35 c-90
-50 -308 -153 -487 -229 -280 -119 -618 -229 -955 -312 -170 -42 -185 -48
-185 -75 0 -34 40 -32 202 9 482 123 871 263 1271 456 65 31 120 55 122 53 2
-2 -27 -40 -63 -85 -69 -83 -76 -88 -247 -164 -331 -146 -704 -272 -1070 -359
-168 -41 -177 -45 -173 -73 4 -32 32 -32 156 -2 372 91 839 246 1099 366 60
27 69 24 41 -14 -14 -17 -37 -50 -52 -71 -29 -43 -55 -57 -206 -113 -242 -89
-564 -186 -790 -238 -204 -47 -205 -48 -205 -75 0 -23 4 -25 42 -24 54 1 247
46 473 110 102 28 344 108 463 151 65 24 120 43 123 43 10 0 -73 -123 -91
-135 -52 -35 -486 -169 -765 -236 -91 -23 -171 -46 -178 -53 -20 -20 -4 -46
29 -46 32 0 346 77 494 122 55 16 116 34 135 40 53 15 146 47 191 64 22 9 42
14 45 12 6 -7 -42 -103 -58 -115 -27 -21 -479 -155 -686 -203 -29 -7 -59 -19
-67 -26 -16 -17 -11 -40 12 -48 18 -7 342 75 547 139 81 25 149 45 151 43 2
-2 -8 -31 -22 -65 l-24 -61 -122 -41 c-121 -40 -162 -52 -328 -96 -102 -26
-109 -30 -109 -56 0 -45 42 -38 383 66 65 20 122 35 127 33 5 -2 1 -25 -8 -53
l-17 -50 -100 -31 c-55 -18 -127 -40 -160 -49 -97 -27 -107 -33 -103 -58 5
-34 32 -32 186 12 77 23 143 41 145 41 3 0 -3 -26 -13 -57 -10 -32 -23 -77
-29 -100 -7 -25 -18 -43 -26 -43 -20 0 -55 -49 -55 -76 0 -12 11 -35 24 -50
33 -39 89 -39 122 0 28 32 30 54 8 93 -16 28 -15 34 21 158 163 558 477 1089
907 1530 l126 130 41 -40 c56 -54 55 -81 -6 -131 -27 -22 -96 -88 -156 -148
-62 -63 -124 -117 -147 -127 -34 -15 -40 -23 -46 -58 -6 -35 -40 -91 -103
-167 -5 -6 -41 -58 -79 -115 -201 -303 -326 -582 -418 -939 -31 -120 -39 -138
-69 -166 -44 -40 -46 -75 -6 -115 35 -34 68 -37 105 -8 20 16 26 29 26 58 0
20 -6 46 -14 56 -9 13 -11 28 -6 44 5 15 16 59 25 100 59 257 196 587 340 820
73 119 227 334 242 339 17 5 27 -25 48 -133 74 -393 258 -817 465 -1070 32
-38 69 -81 84 -94 18 -17 26 -35 26 -57 0 -74 83 -113 135 -64 55 52 17 140
-61 140 -28 0 -41 10 -98 76 -226 264 -387 624 -485 1081 -25 117 -27 134 -14
145 11 9 14 25 10 63 l-6 50 143 141 c142 139 144 140 186 138 29 -1 50 -9 66
-26 l25 -24 -43 -31 c-79 -58 -210 -196 -234 -248 -38 -81 -39 -116 -4 -250
81 -309 170 -541 285 -740 71 -123 121 -191 202 -275 40 -42 63 -73 63 -88 0
-32 52 -82 85 -82 34 0 85 50 85 83 0 13 -9 36 -21 51 -17 21 -29 26 -67 26
-45 0 -50 3 -106 62 -133 142 -245 344 -365 658 -31 81 -111 368 -118 421 -11
87 46 170 210 307 l78 65 51 -49 c244 -235 259 -359 68 -566 -62 -67 -71 -74
-102 -71 -70 7 -112 -73 -68 -130 43 -54 140 -25 140 43 0 16 11 37 26 51 51
48 133 155 163 215 59 117 49 225 -30 341 -34 50 -178 198 -262 270 -31 27
-45 46 -41 56 7 19 -20 73 -41 81 -9 3 -32 6 -50 6 -73 0 -235 229 -265 376
-19 90 -8 224 26 308 31 79 97 180 166 255 39 42 53 51 81 51 43 0 80 38 80
80 0 41 -38 80 -77 80 -45 -1 -75 -28 -83 -75 -3 -26 -17 -53 -38 -75 -60 -64
-136 -174 -171 -247 -100 -208 -78 -429 65 -648 l19 -30 -43 -38 -44 -38 -27
43 c-53 82 -102 185 -125 259 -34 106 -33 274 0 374 37 111 81 190 166 303 33
44 44 52 71 52 39 0 74 38 74 82 0 39 -40 78 -80 78 -19 0 -40 -9 -55 -25z"/>
<path d="M3175 4795 c-14 -13 -25 -35 -25 -47 0 -16 -23 -46 -71 -93 -139
-136 -194 -249 -194 -400 0 -154 60 -295 149 -353 35 -23 52 -27 111 -27 61 0
76 4 115 30 25 17 46 40 48 50 1 13 -15 37 -48 69 -144 141 -107 366 75 452
138 66 314 -4 372 -148 22 -54 22 -159 -1 -211 -34 -78 -144 -167 -208 -167
-30 0 -33 -3 -99 -80 -61 -72 -87 -110 -107 -154 -15 -36 -13 -41 98 -161 175
-190 230 -289 238 -420 4 -78 3 -82 -37 -160 -42 -83 -125 -199 -199 -279 -34
-37 -49 -46 -75 -46 -72 0 -106 -96 -51 -139 56 -44 134 -7 134 64 0 20 8 39
21 51 32 29 152 182 194 248 147 230 104 423 -158 705 -53 58 -97 112 -97 120
0 9 11 30 25 46 l25 30 118 -120 c346 -352 375 -547 137 -905 -72 -107 -192
-245 -211 -242 -9 2 -30 -2 -46 -9 -94 -39 -41 -181 56 -149 36 11 61 52 54
87 -2 11 23 49 70 103 146 170 246 340 283 483 23 87 24 142 4 226 -33 140
-129 283 -314 465 l-110 110 19 26 c11 16 38 32 72 43 113 35 194 112 233 218
24 69 18 197 -13 260 -36 74 -87 125 -160 161 -60 30 -75 33 -152 33 -70 0
-95 -5 -141 -27 -183 -85 -255 -293 -163 -475 15 -29 37 -62 50 -74 32 -30 30
-36 -11 -48 -97 -27 -176 42 -219 191 -47 162 2 319 143 459 70 69 79 75 111
71 51 -6 90 27 90 77 0 74 -83 109 -135 56z"/>
<path d="M2506 2799 c-51 -56 -138 -191 -171 -264 -48 -109 -52 -119 -84 -211
-33 -97 -131 -474 -131 -505 0 -11 -6 -19 -14 -19 -21 0 -56 -49 -56 -77 0
-33 51 -83 85 -83 16 0 38 12 57 30 25 26 29 36 24 63 -4 17 -12 38 -20 45
-11 11 -9 30 9 115 81 367 157 578 271 755 29 45 58 82 63 82 6 0 15 -19 21
-42 14 -54 117 -366 130 -393 5 -11 18 -42 29 -70 69 -180 167 -343 266 -439
36 -35 65 -72 65 -82 1 -61 96 -97 137 -51 31 33 36 62 18 96 -17 33 -49 46
-92 38 -53 -10 -171 129 -261 308 -71 139 -106 230 -192 500 -29 88 -58 178
-65 200 -18 55 -42 57 -89 4z"/>
<path d="M1105 1241 c-48 -12 -74 -33 -96 -78 -19 -38 -20 -58 -17 -222 3
-196 6 -206 71 -254 38 -29 136 -29 173 -1 65 48 69 60 72 247 2 123 0 183
-10 211 -24 72 -112 116 -193 97z m86 -100 c23 -18 24 -26 27 -168 2 -87 -1
-159 -7 -176 -21 -54 -97 -62 -119 -12 -16 35 -16 309 -1 338 23 42 62 49 100
18z"/>
<path d="M2298 1240 c-50 -9 -82 -32 -104 -77 -16 -33 -19 -61 -19 -208 0
-193 11 -232 76 -270 48 -28 135 -26 178 4 60 43 66 66 66 266 0 171 -1 182
-23 218 -36 56 -96 80 -174 67z m72 -90 c28 -15 40 -72 40 -195 0 -60 -5 -127
-10 -147 -17 -58 -71 -77 -110 -38 -18 18 -20 33 -20 185 0 152 2 167 20 185
22 22 51 26 80 10z"/>
<path d="M380 955 l0 -285 45 0 45 0 2 186 3 187 39 -149 c62 -241 56 -224 86
-224 27 0 28 2 70 173 24 94 47 179 51 187 5 8 9 -68 9 -172 l0 -188 45 0 45
0 0 285 0 286 -67 -3 -67 -3 -17 -60 c-9 -33 -27 -104 -40 -157 -12 -54 -26
-98 -29 -98 -4 0 -19 53 -34 118 -16 64 -34 135 -40 157 l-13 40 -66 3 -67 3
0 -286z"/>
<path d="M1440 1195 l0 -45 60 0 60 0 0 -240 0 -240 45 0 45 0 0 240 0 239 58
3 57 3 0 40 0 40 -162 3 -163 2 0 -45z"/>
<path d="M1915 1227 c-3 -7 -4 -134 -3 -282 l3 -270 43 -3 42 -3 0 285 0 286
-40 0 c-24 0 -43 -5 -45 -13z"/>
<path d="M2670 955 l0 -285 40 0 40 0 0 177 c0 97 3 173 7 170 4 -4 39 -83 77
-175 l71 -167 43 -3 42 -3 0 285 0 286 -40 0 c-46 0 -43 12 -41 -170 1 -52 -2
-108 -7 -124 -7 -27 -12 -19 -64 105 -31 74 -61 146 -67 162 -9 24 -16 27 -56
27 l-45 0 0 -285z"/>
<path d="M3170 955 l0 -285 45 0 45 0 0 125 0 125 65 0 65 0 0 -125 0 -125 45
0 45 0 0 285 0 285 -45 0 -45 0 0 -120 0 -121 -62 3 -63 3 -3 118 -3 117 -44
0 -45 0 0 -285z"/>
<path d="M3660 1009 c0 -255 5 -280 62 -320 23 -17 45 -21 93 -21 48 0 70 4
93 21 57 40 62 65 62 320 l0 231 -45 0 -45 0 0 -209 c0 -125 -4 -221 -11 -240
-18 -52 -90 -55 -110 -4 -5 13 -9 121 -9 239 l0 214 -45 0 -45 0 0 -231z"/>
<path d="M4150 955 l0 -285 103 0 c118 1 158 15 194 69 44 66 22 197 -36 216
-26 8 -27 22 -2 30 31 10 54 70 48 128 -8 90 -73 127 -224 127 l-83 0 0 -285z
m192 178 c11 -10 18 -30 18 -54 0 -46 -27 -69 -82 -69 l-38 0 0 70 0 70 42 0
c24 0 49 -7 60 -17z m-18 -213 c34 -12 59 -63 51 -101 -10 -45 -30 -59 -86
-59 l-49 0 0 78 c0 43 3 82 7 85 9 10 48 9 77 -3z"/>
</g>
</svg>
